<svg xmlns="http://www.w3.org/2000/svg" xmlns:xlink="http://www.w3.org/1999/xlink" viewBox="0 0 478.67 478.67"><defs><style>.a{fill:url(#a);}.b{fill:url(#b);}.c{fill:url(#c);}.d{fill:url(#d);}.e{fill:url(#e);}.f{fill:url(#f);}.g{fill:url(#g);}.h{fill:url(#h);}.i{fill:url(#i);}.j{fill:url(#j);}.k{fill:url(#k);}</style><linearGradient id="a" x1="119.65" y1="446.64" x2="359.02" y2="32.03" gradientUnits="userSpaceOnUse"><stop offset="0" stop-color="#fff33b"/><stop offset="0.04" stop-color="#fee72e"/><stop offset="0.12" stop-color="#fed51b"/><stop offset="0.2" stop-color="#fdca10"/><stop offset="0.28" stop-color="#fdc70c"/><stop offset="0.67" stop-color="#f3903f"/><stop offset="0.89" stop-color="#ed683c"/><stop offset="1" stop-color="#e93e3a"/></linearGradient><linearGradient id="b" x1="126.91" y1="163.79" x2="153.42" y2="117.88" gradientUnits="userSpaceOnUse"><stop offset="0" stop-color="#2a1b0e"/><stop offset="0.07" stop-color="#301d0e"/><stop offset="0.38" stop-color="#43260f"/><stop offset="0.69" stop-color="#4f2b0f"/><stop offset="1" stop-color="#532d0f"/></linearGradient><linearGradient id="c" x1="334.33" y1="220.93" x2="379.67" y2="142.4" xlink:href="#b"/><linearGradient id="d" x1="127.83" y1="317.26" x2="150.84" y2="277.41" xlink:href="#b"/><linearGradient id="e" x1="250.16" y1="402.58" x2="283.17" y2="345.42" xlink:href="#b"/><linearGradient id="f" x1="229" y1="199.57" x2="249.67" y2="163.77" xlink:href="#b"/><linearGradient id="g" x1="252.67" y1="78.59" x2="270.67" y2="47.41" xlink:href="#b"/><linearGradient id="h" x1="58.67" y1="228.1" x2="75.33" y2="199.23" xlink:href="#b"/><linearGradient id="i" x1="350.42" y1="326.15" x2="369.25" y2="293.52" xlink:href="#b"/><linearGradient id="j" x1="212.75" y1="280.82" x2="221.58" y2="265.52" xlink:href="#b"/><linearGradient id="k" x1="161.75" y1="374.85" x2="171.58" y2="357.82" xlink:href="#b"/></defs><title>lightcookieCore</title><circle class="a" cx="239.33" cy="239.33" r="239.33"/><circle class="b" cx="140.17" cy="140.83" r="26.5"/><circle class="c" cx="357" cy="181.67" r="45.33"/><circle class="d" cx="139.33" cy="297.33" r="23"/><circle class="e" cx="266.67" cy="374" r="33"/><circle class="f" cx="239.33" cy="181.67" r="20.67"/><circle class="g" cx="261.67" cy="63" r="18"/><circle class="h" cx="67" cy="213.67" r="16.67"/><circle class="i" cx="359.83" cy="309.83" r="18.83"/><circle class="j" cx="217.17" cy="273.17" r="8.83"/><circle class="k" cx="166.67" cy="366.33" r="9.83"/></svg>